<?xml version="1.0" encoding="utf-8"?>
<!-- Generator: Adobe Illustrator 26.5.0, SVG Export Plug-In . SVG Version: 6.00 Build 0)  -->
<svg version="1.1" xmlns="http://www.w3.org/2000/svg" xmlns:xlink="http://www.w3.org/1999/xlink" x="0px" y="0px"
	 viewBox="0 0 527.55 235.71" style="enable-background:new 0 0 527.55 235.71;" xml:space="preserve">
<style type="text/css">
	.st0{fill:#fff;}
	.st1{fill:#fff;}
	path{fill:#fff;}
</style>
<g id="Capa_1">
	<g>
		<g>
			<path d="M137.78,34.91c0.7,0,1.05,0.19,1.05,0.56V53.5c0,0.41-0.35,0.62-1.05,0.62h-7.99c-0.7,0-1.05-0.15-1.05-0.45l-4.31-13.03
				c0-0.3-0.35-0.45-1.05-0.45H88.46c-0.56,0-0.84,0.19-0.84,0.56v65.92c0,0.34,0.35,0.52,1.05,0.56l20.4,0.9
				c0.77,0.04,1.16,0.24,1.16,0.62v2.98c0,0.37-0.39,0.56-1.16,0.56H47.34c-0.77,0-1.16-0.19-1.16-0.56v-2.98
				c0-0.37,0.38-0.58,1.16-0.62l20.4-0.9c0.7-0.04,1.05-0.22,1.05-0.56V40.75c0-0.37-0.28-0.56-0.84-0.56H33.04
				c-0.7,0-1.05,0.15-1.05,0.45l-4.31,13.03c0,0.3-0.35,0.45-1.05,0.45h-7.99c-0.7,0-1.05-0.21-1.05-0.62V35.48
				c0-0.37,0.35-0.56,1.05-0.56H137.78z"/>
		</g>
		<g>
			<path d="M109.07,114.29H47.34c-3.07,0-3.16-2.3-3.16-2.56v-2.98c0-0.25,0.09-2.47,3.06-2.62l19.55-0.86V42.19H33.58L29.6,54.21
				c-0.18,0.73-0.81,1.91-2.98,1.91h-7.99c-2.41,0-3.05-1.65-3.05-2.62V35.48c0-0.95,0.64-2.56,3.05-2.56h119.15
				c2.41,0,3.05,1.61,3.05,2.56V53.5c0,0.97-0.64,2.62-3.05,2.62h-7.99c-2.17,0-2.8-1.18-2.98-1.91l-3.98-12.01H89.62v63.09
				l19.54,0.86c2.98,0.15,3.07,2.36,3.07,2.62v2.98C112.23,111.99,112.14,114.29,109.07,114.29z M48.18,110.29h60.05v-0.19
				l-19.65-0.87c-2.88-0.15-2.96-2.31-2.96-2.56V40.75c0-1.23,0.89-2.56,2.84-2.56h34.91c2.17,0,2.8,1.18,2.98,1.91l3.98,12.01h6.5
				v-15.2H19.58v15.2l6.5,0l3.98-12.02c0.18-0.73,0.81-1.91,2.98-1.91h34.91c1.95,0,2.84,1.33,2.84,2.56v65.92
				c0,0.25-0.08,2.41-2.95,2.56l-19.66,0.87V110.29z"/>
		</g>
	</g>
	<g>
		<g>
			<path d="M257.46,112.29c-0.7,0-1.05-0.19-1.05-0.56v-2.86c0-0.41,0.35-0.62,1.05-0.62l16.83-0.79c0.7,0,1.05-0.19,1.05-0.56
				V68.49c-0.28-0.22-0.63-0.34-1.05-0.34H258.3c-0.7,0-1.05-0.21-1.05-0.62v-2.86c0-0.37,0.35-0.56,1.05-0.56l15.98-1.07
				c0.7,0,1.05-0.19,1.05-0.56v-5.17c0-9.66,3.37-16.4,10.1-20.21c7.01-4.01,16.51-6.01,28.5-6.01c4.98,0,11.71,0.58,20.19,1.74
				c0.7,0.19,1.05,0.41,1.05,0.67v13.03c0,0.3-0.35,0.45-1.05,0.45h-6.63c-0.77,0-1.16-0.15-1.16-0.45l-2.73-7.86
				c-0.28-0.75-2.28-1.38-6-1.91c-1.82-0.26-3.79-0.39-5.89-0.39c-12.62,0-18.93,5.33-18.93,16v9.88c0,0.37,0.35,0.56,1.05,0.56
				h25.87c0.7,0,1.05,0.21,1.05,0.62v4.1c0,0.41-0.35,0.62-1.05,0.62h-25.87c-0.7,0-1.05,0.19-1.05,0.56v38.18
				c0,0.34,0.35,0.52,1.05,0.56l17.04,0.79c0.7,0.04,1.05,0.24,1.05,0.62v2.86c0,0.37-0.35,0.56-1.05,0.56H257.46z"/>
		</g>
		<g>
			<path d="M310.88,114.29h-53.42c-2.41,0-3.05-1.61-3.05-2.56v-2.86c0-0.97,0.64-2.62,3.05-2.62l15.88-0.74V70.16l-15.04,0
				c-2.41,0-3.05-1.65-3.05-2.62v-2.86c0-0.94,0.63-2.53,2.98-2.56l15.11-1.01v-3.79c0-10.39,3.74-17.77,11.11-21.95
				c7.28-4.16,17.2-6.27,29.49-6.27c5.04,0,11.92,0.59,20.46,1.76l0.25,0.05c2.09,0.56,2.53,1.73,2.53,2.61v13.03
				c0,0.25-0.09,2.45-3.05,2.45h-6.63c-2.3,0-2.93-1.19-3.1-1.94l-2.54-7.29c-0.41-0.19-1.56-0.59-4.53-1.01
				c-1.73-0.25-3.62-0.37-5.61-0.37c-11.55,0-16.93,4.45-16.93,14v8.44h24.92c2.41,0,3.05,1.65,3.05,2.62v4.1
				c0,0.97-0.64,2.62-3.05,2.62h-24.92v35.35l16.18,0.75c2.19,0.12,2.96,1.48,2.96,2.62v2.86
				C313.93,112.68,313.29,114.29,310.88,114.29z M258.41,110.29h51.53v-0.08l-16.18-0.75c-2.88-0.15-2.96-2.31-2.96-2.56V68.72
				c0-0.95,0.64-2.56,3.05-2.56h24.92v-1.33l-24.92,0c-2.41,0-3.05-1.61-3.05-2.56v-9.88c0-8.21,3.63-18,20.93-18
				c2.18,0,4.26,0.14,6.17,0.41c4.98,0.7,6.96,1.54,7.58,3.19l2.44,7.01h5.25V34.73c-8.05-1.08-14.52-1.63-19.24-1.63
				c-11.58,0-20.84,1.93-27.51,5.74c-6.12,3.47-9.09,9.51-9.09,18.48v5.17c0,0.94-0.63,2.53-2.98,2.56l-15.11,1.01v0.1l15.04,0
				c0.87,0,1.67,0.27,2.3,0.78l0.75,0.6v39.37c0,0.95-0.64,2.56-3.05,2.56l-15.88,0.74V110.29z M322.06,39.86L322.06,39.86
				L322.06,39.86z"/>
		</g>
	</g>
	<g>
		<g>
			<path d="M325.92,112.29c-0.7,0-1.05-0.19-1.05-0.56v-2.86c0-0.41,0.35-0.62,1.05-0.62l16.83-0.79c0.7,0,1.05-0.19,1.05-0.56
				V68.49c-0.28-0.22-0.63-0.34-1.05-0.34h-15.99c-0.7,0-1.05-0.21-1.05-0.62v-2.86c0-0.37,0.35-0.56,1.05-0.56l15.99-1.07
				c0.7,0,1.05-0.19,1.05-0.56v-5.17c0-9.66,3.37-16.4,10.1-20.21c7.01-4.01,16.51-6.01,28.5-6.01c4.98,0,11.71,0.58,20.19,1.74
				c0.7,0.19,1.05,0.41,1.05,0.67v13.03c0,0.3-0.35,0.45-1.05,0.45h-6.63c-0.77,0-1.16-0.15-1.16-0.45l-2.73-7.86
				c-0.28-0.75-2.28-1.38-6-1.91c-1.82-0.26-3.79-0.39-5.89-0.39c-12.62,0-18.93,5.33-18.93,16v9.88c0,0.37,0.35,0.56,1.05,0.56
				h25.87c0.7,0,1.05,0.21,1.05,0.62v4.1c0,0.41-0.35,0.62-1.05,0.62h-25.87c-0.7,0-1.05,0.19-1.05,0.56v38.18
				c0,0.34,0.35,0.52,1.05,0.56l17.04,0.79c0.7,0.04,1.05,0.24,1.05,0.62v2.86c0,0.37-0.35,0.56-1.05,0.56H325.92z"/>
		</g>
		<g>
			<path d="M379.34,114.29h-53.42c-2.41,0-3.05-1.61-3.05-2.56v-2.86c0-0.97,0.64-2.62,3.05-2.62l15.88-0.74V70.16l-15.04,0
				c-2.41,0-3.05-1.65-3.05-2.62v-2.86c0-0.94,0.63-2.53,2.98-2.56l15.11-1.01v-3.79c0-10.39,3.74-17.77,11.11-21.95
				c7.28-4.16,17.2-6.27,29.49-6.27c5.04,0,11.92,0.59,20.46,1.76l0.25,0.05c2.09,0.56,2.53,1.73,2.53,2.61v13.03
				c0,0.25-0.09,2.45-3.05,2.45h-6.63c-2.3,0-2.93-1.19-3.1-1.94l-2.54-7.29c-0.41-0.19-1.56-0.59-4.53-1.01
				c-1.73-0.25-3.62-0.37-5.61-0.37c-11.55,0-16.93,4.45-16.93,14v8.44h24.92c2.41,0,3.05,1.65,3.05,2.62v4.1
				c0,0.97-0.64,2.62-3.05,2.62h-24.92v35.35l16.18,0.75c2.19,0.12,2.96,1.48,2.96,2.62v2.86
				C382.4,112.68,381.75,114.29,379.34,114.29z M326.87,110.29h51.53v-0.08l-16.18-0.75c-2.88-0.15-2.96-2.31-2.96-2.56V68.72
				c0-0.95,0.64-2.56,3.05-2.56h24.92v-1.33l-24.92,0c-2.41,0-3.05-1.61-3.05-2.56v-9.88c0-8.21,3.63-18,20.93-18
				c2.18,0,4.26,0.14,6.17,0.41c4.98,0.7,6.96,1.54,7.58,3.19l2.44,7.01h5.25V34.73c-8.05-1.08-14.52-1.63-19.24-1.63
				c-11.58,0-20.84,1.93-27.51,5.74c-6.12,3.47-9.09,9.51-9.09,18.48v5.17c0,0.94-0.63,2.53-2.98,2.56l-15.11,1.01v0.1l15.04,0
				c0.87,0,1.67,0.27,2.3,0.78l0.75,0.6v39.37c0,0.95-0.64,2.56-3.05,2.56l-15.88,0.74V110.29z M390.52,39.86L390.52,39.86
				L390.52,39.86z"/>
		</g>
	</g>
	<g>
		<g>
			<path d="M436.13,62.37c0.77,0,1.16,0.19,1.16,0.56v2.92c0,0.3-0.32,0.45-0.95,0.45l-11.15,0.67c-0.98,0-1.26,0.26-0.84,0.79
				l25.34,32.79l26.08-32.79c0.42-0.52,0.14-0.79-0.84-0.79l-11.15-0.67c-0.63,0-0.95-0.15-0.95-0.45v-2.92
				c0-0.37,0.38-0.56,1.16-0.56h34.6c0.77,0,1.16,0.19,1.16,0.56v2.81c0,0.37-0.39,0.56-1.16,0.56l-11.78,0.67
				c-0.35,0.04-0.63,0.15-0.84,0.34l-38.59,48.52c-13.88,17.41-25.94,26.11-36.18,26.11c-0.42,0-0.91-0.08-1.47-0.22l-10.2-5.39
				c-0.49-0.26-0.56-0.52-0.21-0.79l2.63-2.3c0.28-0.15,0.63-0.22,1.05-0.22c6.8,0,12.34-0.84,16.62-2.53
				c3.37-1.35,7.01-3.78,10.94-7.3c2.45-2.17,5.47-5.47,9.04-9.88c0.28-0.34,0.28-0.82,0-1.46l-35.12-44.42
				c-0.28-0.22-0.56-0.34-0.84-0.34l-12.51-0.79c-0.56,0-0.84-0.15-0.84-0.45v-2.92c0-0.37,0.35-0.56,1.05-0.56H436.13z"/>
		</g>
		<g>
			<path d="M411.21,143.94c-0.6,0-1.24-0.1-1.98-0.29l-0.22-0.06l-10.4-5.5c-1.21-0.65-1.45-1.57-1.49-2.06
				c-0.06-0.78,0.28-1.51,0.94-2.04l2.76-2.41l0.2-0.11c0.57-0.31,1.24-0.46,2-0.46c6.52,0,11.86-0.8,15.88-2.39
				c3.12-1.25,6.6-3.58,10.33-6.93c2.27-2.01,5.09-5.08,8.4-9.13l-34.4-43.5l-12.18-0.76c-1.9-0.03-2.77-1.28-2.77-2.45v-2.92
				c0-0.95,0.64-2.56,3.05-2.56h44.8c3.07,0,3.16,2.3,3.16,2.56v2.92c0,0.9-0.61,2.42-2.88,2.45l-8.71,0.53l22.02,28.49l22.66-28.49
				l-8.66-0.52c-2.27-0.03-2.88-1.55-2.88-2.45v-2.92c0-0.26,0.09-2.56,3.16-2.56h34.6c3.07,0,3.16,2.3,3.16,2.56v2.81
				c0,0.26-0.09,2.53-3.09,2.56l-11.43,0.65l-38.28,48.12C434.54,135.15,422.19,143.94,411.21,143.94z M410.46,139.83
				c0.37,0.09,0.61,0.11,0.75,0.11c9.55,0,21.19-8.53,34.61-25.36l38.7-48.65l0.13-0.12c0.53-0.47,1.19-0.75,1.96-0.83l10.73-0.62
				H465l10.01,0.6c1.38,0.01,2.3,0.49,2.74,1.41c0.19,0.4,0.53,1.45-0.41,2.63l-27.66,34.78l-26.9-34.81
				c-0.92-1.15-0.58-2.2-0.39-2.6c0.44-0.92,1.37-1.4,2.74-1.41l10.01-0.6h-42.85l11.43,0.72c0.51,0.01,1.25,0.17,2.01,0.77
				l0.18,0.14l35.43,44.8l0.1,0.24c0.8,1.81,0.16,3-0.29,3.54c-3.62,4.47-6.74,7.87-9.26,10.1c-4.08,3.65-7.95,6.23-11.52,7.66
				c-4.5,1.77-10.34,2.67-17.36,2.67c-0.02,0-0.03,0-0.04,0l-0.61,0.54L410.46,139.83z M438.05,112.04c0,0.01-0.01,0.01-0.01,0.02
				C438.04,112.06,438.05,112.05,438.05,112.04z M425.92,66.51l0.01,0.02C425.92,66.52,425.92,66.52,425.92,66.51z M474.22,66.52
				C474.22,66.52,474.21,66.52,474.22,66.52L474.22,66.52z"/>
		</g>
	</g>
</g>
<g id="Capa_3">
	<g>
		<path d="M330.71,151.19c0.66,0,1.41,0.04,2.26,0.13s1.69,0.2,2.55,0.34c0.86,0.13,1.71,0.28,2.54,0.44
			c0.83,0.16,1.55,0.29,2.16,0.4c0.2,0.04,0.29,0.12,0.29,0.27v8.33c0,0.18-0.1,0.27-0.29,0.27h-2.12c-0.09,0-0.16-0.02-0.21-0.05
			c-0.05-0.04-0.08-0.09-0.08-0.16l-1.1-6.18c0-0.11-0.07-0.2-0.21-0.27c-0.32-0.07-0.73-0.17-1.24-0.3
			c-0.5-0.12-1.02-0.25-1.54-0.36c-0.53-0.12-1.07-0.21-1.64-0.28c-0.56-0.07-1.11-0.11-1.62-0.11c-2.45,0-4.63,0.38-6.54,1.13
			c-1.91,0.75-3.51,1.82-4.82,3.2c-1.31,1.38-2.3,3.03-2.98,4.96s-1.02,4.04-1.02,6.35c0,2.42,0.36,4.71,1.07,6.88
			c0.72,2.17,1.74,4.07,3.06,5.72s2.92,2.95,4.79,3.89c1.87,0.95,3.94,1.42,6.22,1.42c0.39,0,0.88-0.02,1.45-0.05
			s1.14-0.09,1.71-0.16c0.56-0.07,1.12-0.16,1.68-0.27s1.03-0.27,1.42-0.48c0.14-0.09,0.21-0.19,0.21-0.29l1.1-6.2
			c0-0.04,0.03-0.08,0.08-0.13c0.05-0.05,0.12-0.08,0.21-0.08h2.12c0.2,0,0.29,0.09,0.29,0.27v8.3c0,0.11-0.1,0.2-0.29,0.27
			c-0.61,0.16-1.28,0.32-2.01,0.48c-0.73,0.16-1.54,0.31-2.4,0.46s-1.8,0.26-2.81,0.36c-1,0.1-2.11,0.15-3.33,0.15
			c-2,0-3.89-0.22-5.65-0.66c-1.76-0.44-3.39-1.07-4.88-1.91c-1.49-0.83-2.81-1.83-3.96-2.98c-1.15-1.16-2.13-2.43-2.91-3.84
			c-0.79-1.41-1.4-2.94-1.84-4.62c-0.44-1.67-0.66-3.41-0.66-5.2c0-2.06,0.25-3.97,0.77-5.72c0.51-1.75,1.24-3.36,2.17-4.81
			c0.94-1.45,2.05-2.73,3.33-3.83c1.28-1.1,2.69-2.03,4.23-2.78c1.54-0.75,3.2-1.32,4.98-1.71
			C327.02,151.38,328.84,151.19,330.71,151.19z"/>
		<path d="M358.58,186.61c-2.31,2.13-4.82,3.2-7.52,3.2c-2.81,0-4.71-1.16-5.69-3.46c-0.32-0.75-0.48-1.56-0.48-2.42
			c0-3.03,1.54-5.25,4.62-6.66c0.93-0.43,1.88-0.74,2.85-0.94c2.15-0.45,4.1-0.74,5.86-0.89v-4.24c0-2.85-1.4-4.27-4.19-4.27
			c-1.59,0-2.98,0.29-4.16,0.86c-0.11,0.09-0.2,0.24-0.27,0.46l-0.78,4.06c0,0.16-0.09,0.24-0.27,0.24h-1.72
			c-0.18,0-0.27-0.08-0.27-0.24v-6.1c0-0.11,0.09-0.2,0.27-0.27c2.9-1.04,5.65-1.56,8.24-1.56c3.67,0,6.05,1.1,7.14,3.3
			c0.41,0.82,0.62,1.87,0.62,3.14v14.85c0,0.14,0.07,0.25,0.21,0.32l3.46,0.99c0.18,0.11,0.28,0.2,0.3,0.27v0.94
			c-0.07,0.2-0.15,0.29-0.24,0.29l-7.25,0.97c-0.18,0-0.27-0.09-0.27-0.27L358.58,186.61z M358.21,177.59
			c-1.88,0.11-3.29,0.31-4.24,0.62c-0.25,0.07-0.69,0.21-1.32,0.43c-1.9,0.64-2.85,2.06-2.85,4.24c0,2.35,1.17,3.52,3.52,3.52
			c0.68,0,1.5-0.17,2.47-0.51c0.48-0.18,1.2-0.51,2.15-0.99c0.18-0.12,0.27-0.23,0.27-0.32V177.59z"/>
		<path d="M373.43,153.87c0-0.18-0.09-0.27-0.27-0.27l-4.3-0.46c-0.18,0-0.27-0.09-0.27-0.27v-1.26c0.05-0.18,0.12-0.27,0.21-0.27
			l6.93-1.1c0.11-0.04,0.2-0.05,0.27-0.05h1.61c0.18,0,0.27,0.09,0.27,0.27v35.99c0,0.16,0.09,0.25,0.27,0.27l4.35,0.38
			c0.18,0.02,0.27,0.12,0.27,0.29v1.37c0,0.18-0.09,0.27-0.27,0.27h-13.64c-0.18,0-0.27-0.09-0.27-0.27v-1.37
			c0-0.2,0.09-0.29,0.27-0.29l4.3-0.38c0.18,0,0.27-0.09,0.27-0.27V153.87z"/>
		<path d="M403.3,186.45c-2.61,2.24-5.36,3.36-8.24,3.36c-2.09,0-3.8-0.61-5.13-1.83c-1.38-1.25-2.07-2.92-2.07-5V168.3
			c0-0.18-0.09-0.27-0.27-0.27l-3.97-0.46c-0.18,0-0.27-0.09-0.27-0.27v-1.26c0-0.18,0.07-0.27,0.21-0.27l6.61-1.1
			c0.05-0.02,0.14-0.04,0.27-0.05h1.61c0.18,0,0.27,0.09,0.27,0.27v16.17c0,3.42,1.72,5.13,5.16,5.13c1.77,0,3.59-0.57,5.45-1.72
			c0.18-0.11,0.27-0.21,0.27-0.32V168.3c0-0.18-0.09-0.27-0.27-0.27l-3.95-0.46c-0.2,0-0.3-0.09-0.3-0.27v-1.26
			c0-0.18,0.08-0.27,0.24-0.27l6.58-1.1c0.07-0.02,0.19-0.04,0.35-0.05h1.53c0.18,0,0.27,0.09,0.27,0.27v21.51
			c0,0.18,0.09,0.27,0.27,0.27l3.97,0.43c0.18,0,0.27,0.1,0.27,0.29v1.26c0,0.16-0.07,0.25-0.21,0.27l-8.19,0.54
			c-0.16,0.02-0.25-0.07-0.27-0.27L403.3,186.45z"/>
		<path d="M422.12,181.48c-1.29,0.75-1.93,1.58-1.93,2.5c0,1.36,0.55,2.12,1.67,2.28c0.36,0.05,0.78,0.08,1.26,0.08h4.27
			c2.4,0,4.18,0.12,5.34,0.38c2.01,0.41,3.51,1.27,4.51,2.58c0.63,0.81,1.03,1.78,1.21,2.93c0.07,0.45,0.11,0.85,0.11,1.21
			c0,2.33-0.83,4.31-2.5,5.96c-1.47,1.45-3.4,2.51-5.8,3.17c-1.58,0.43-3.3,0.64-5.18,0.64c-2.78,0-5.11-0.43-7.01-1.29
			c-2.54-1.15-3.81-2.95-3.81-5.4c0-1.29,0.56-2.59,1.67-3.89c1-1.2,2.15-2.05,3.44-2.55c-0.93-0.25-1.68-0.77-2.26-1.57
			c-0.57-0.8-0.86-1.69-0.86-2.67c0-1.84,1.35-3.58,4.05-5.21c-2.6-1.63-3.89-4.04-3.89-7.22c0-2.61,0.95-4.78,2.85-6.5
			c1.84-1.68,4.08-2.52,6.71-2.52c1.4,0,2.7,0.26,3.92,0.78h8.03c0.18,0,0.27,0.09,0.27,0.27v1.4c0,0.16-0.09,0.25-0.27,0.27
			l-4.86,0.38c1.4,1.54,2.1,3.43,2.1,5.67c0,2.56-0.92,4.69-2.75,6.38c-1.84,1.69-4.05,2.54-6.65,2.54
			C424.39,182.05,423.18,181.86,422.12,181.48z M422.5,190.56c-1.06,0.18-1.98,0.82-2.77,1.92c-0.79,1.1-1.18,2.21-1.18,3.32
			c0,3.44,2.42,5.16,7.25,5.16c2.26,0,4.12-0.41,5.59-1.24c1.81-1.04,2.71-2.6,2.71-4.7c0-2.97-2.33-4.46-6.98-4.46H422.5z
			 M425.96,179.74c1.92,0,3.22-1.08,3.92-3.25c0.25-0.79,0.38-1.8,0.38-3.04c0-4.49-1.5-6.74-4.51-6.74c-2.08,0-3.46,1.12-4.16,3.36
			c-0.27,0.86-0.4,1.88-0.4,3.06c0,2.27,0.52,4.01,1.56,5.21C423.55,179.27,424.62,179.74,425.96,179.74z"/>
		<path d="M454.62,186.61c-2.31,2.13-4.82,3.2-7.52,3.2c-2.81,0-4.71-1.16-5.69-3.46c-0.32-0.75-0.48-1.56-0.48-2.42
			c0-3.03,1.54-5.25,4.62-6.66c0.93-0.43,1.88-0.74,2.85-0.94c2.15-0.45,4.1-0.74,5.86-0.89v-4.24c0-2.85-1.4-4.27-4.19-4.27
			c-1.59,0-2.98,0.29-4.16,0.86c-0.11,0.09-0.2,0.24-0.27,0.46l-0.78,4.06c0,0.16-0.09,0.24-0.27,0.24h-1.72
			c-0.18,0-0.27-0.08-0.27-0.24v-6.1c0-0.11,0.09-0.2,0.27-0.27c2.9-1.04,5.65-1.56,8.24-1.56c3.67,0,6.05,1.1,7.14,3.3
			c0.41,0.82,0.62,1.87,0.62,3.14v14.85c0,0.14,0.07,0.25,0.21,0.32l3.46,0.99c0.18,0.11,0.28,0.2,0.3,0.27v0.94
			c-0.07,0.2-0.15,0.29-0.24,0.29l-7.25,0.97c-0.18,0-0.27-0.09-0.27-0.27L454.62,186.61z M454.24,177.59
			c-1.88,0.11-3.29,0.31-4.24,0.62c-0.25,0.07-0.69,0.21-1.32,0.43c-1.9,0.64-2.85,2.06-2.85,4.24c0,2.35,1.17,3.52,3.52,3.52
			c0.68,0,1.5-0.17,2.47-0.51c0.48-0.18,1.2-0.51,2.15-0.99c0.18-0.12,0.27-0.23,0.27-0.32V177.59z"/>
	</g>
</g>
<g id="Capa_2">
	<g>
		<path class="st0" d="M193.13,124.98c-30.33,0-55.01-21.51-55.01-47.94S162.8,29.1,193.13,29.1s55.01,21.51,55.01,47.94
			S223.47,124.98,193.13,124.98z M193.13,37.21c-25.2,0-45.7,17.86-45.7,39.82s20.5,39.82,45.7,39.82c25.2,0,45.7-17.86,45.7-39.82
			S218.33,37.21,193.13,37.21z"/>
		<path class="st0" d="M193.13,121.11c-27.89,0-50.58-19.77-50.58-44.07s22.69-44.07,50.58-44.07c27.89,0,50.58,19.77,50.58,44.07
			S221.02,121.11,193.13,121.11z M193.13,33.35c-27.64,0-50.13,19.6-50.13,43.69s22.49,43.69,50.13,43.69s50.13-19.6,50.13-43.69
			S220.78,33.35,193.13,33.35z"/>
	</g>
	<path class="st0" d="M282.06,221.85c-2.51,0-5.01-0.09-7.23-0.27c-15.23-1.22-29.33-6.84-39.7-15.81
		c-4.45-3.85-8.11-8.26-10.87-13.07c-6.46,10.35-17.33,16.81-29.34,16.81c-7.96,0-15.47-2.78-21.73-8.04
		c-3.14-2.64-5.8-5.76-7.93-9.28c-3.59,6.25-8.74,11.83-15.08,16.24c-9.79,6.8-22.08,10.55-34.61,10.55h-0.62
		c-17.11,0-27.66-0.98-30.97-5.98c-0.82-1.23-1.87-3.78,0.26-7c1.35-2.05,3.25-14.53,3.04-34.82c-0.22-21.8-2.57-32.87-4-34.73
		c-2.48-3.23-1.52-5.88-0.72-7.18c1.65-2.7,5.41-4.43,11.84-5.45c5.11-0.81,12.24-1.23,21.18-1.23c12.61,0,24.96,3.79,34.78,10.67
		c6.39,4.48,11.56,10.14,15.12,16.48c2.13-3.43,4.77-6.48,7.86-9.06c6.23-5.18,13.69-7.92,21.58-7.92
		c11.79,0,22.55,6.29,29.05,16.37c2.78-5,6.55-9.6,11.15-13.59c10.4-9.01,24.5-14.61,39.73-15.78c0.81-0.06,1.65-0.13,2.51-0.2
		c4.25-0.34,9.04-0.73,13.39-0.73c7.24,0,11.63,1.08,14.23,3.49c1.81,1.67,2.57,3.91,2.14,6.32c-4.32,24.48-7.73,65.71,0.59,78.95
		c1.72,2.73,1.68,5.54-0.1,7.9C303.44,221.02,289.81,221.85,282.06,221.85L282.06,221.85z M229.13,181.14
		c5.24,17.84,23.4,30.5,46.55,32.36c1.98,0.16,4.22,0.24,6.49,0.24c10.15,0,15.65-1.5,17.26-2.43
		c-12.21-19.87-2.51-78.16-1.58-83.59c-0.69-0.26-2.6-0.77-7.18-0.77c-3.99,0-8.49,0.36-12.46,0.69l-0.06,0
		c-0.86,0.07-1.69,0.14-2.49,0.2c-22.86,1.76-41.47,14.93-46.63,32.89c-0.54,2.83-0.96,6.22-0.95,10.06
		C228.09,174.75,228.55,178.24,229.13,181.14z M92.81,209.17c2,0.72,7.38,1.68,21.76,1.68l1,0c21.21,0,39.94-12.86,44.89-30.7
		c0.75-2.41,1.48-5.76,1.42-9.76c-0.04-3.5-0.67-6.45-1.34-8.68c-4.82-18.02-23.58-31.02-44.98-31.02
		c-15.82,0-21.82,1.37-23.94,2.14c4.2,7.28,4.88,28.97,4.97,38.26C96.67,178.29,96.6,201.59,92.81,209.17z M169.99,180.18
		c3.42,12.53,13.57,21.21,24.92,21.21c10.98,0,21.01-8.31,24.66-20.32c-0.04-3.44-0.08-6.9-0.1-10.38
		c-0.02-3.32-0.03-6.62-0.03-9.91c-3.78-11.95-13.55-19.91-24.54-19.91c-11.22,0-21.33,8.55-24.83,20.89
		c-0.63,3.88-0.98,8.39-0.64,13.39C169.56,176.91,169.75,178.59,169.99,180.18z"/>
	<path class="st0" d="M303.82,209.44c-9.54-15.18-4.88-59.88-1.08-81.4c0.22-1.24-0.11-2.27-0.99-3.08
		c-3.48-3.22-14.85-2.3-23.98-1.56c-0.87,0.07-1.72,0.14-2.53,0.2c-14.19,1.09-27.33,6.3-36.99,14.67
		c-6.98,6.05-11.77,13.49-14.02,21.6c-4.2-13.52-15.75-23.26-29.31-23.26c-13.87,0-25.65,10.19-29.59,24.21
		c-5.21-19.67-25.54-34.38-49.75-34.38c-17.43,0-27.22,1.56-29.1,4.63c-0.58,0.94-0.41,2.02,0.5,3.21
		c2.7,3.51,4.56,17.97,4.75,36.85c0.18,18.14-1.31,33.27-3.64,36.79c-0.78,1.18-0.87,2.23-0.27,3.14c2.65,4,18.41,4.05,27.13,4.05
		c0.11,0,0.21,0,0.32,0h0.3c24.06,0,44.29-14.53,49.66-34.02c3.85,14.19,15.7,24.56,29.69,24.56c13.71,0,25.37-9.95,29.45-23.71
		c2.31,7.91,7.04,15.17,13.89,21.09c9.65,8.34,22.78,13.57,36.99,14.71c2.06,0.17,4.39,0.26,6.82,0.26c8.98,0,19.3-1.25,21.84-4.62
		C304.76,212.22,304.73,210.9,303.82,209.44z M115.57,214.72h-0.3c-7.95,0-24.51,0-27.07-3.86c-0.52-0.79-0.44-1.69,0.27-2.75
		c2.77-4.19,3.85-21.59,3.7-36.98c-0.15-14.39-1.5-32.73-4.83-37.06c-0.82-1.07-0.98-1.99-0.47-2.81c1.24-2.02,7.22-4.43,28.71-4.43
		c24.32,0,44.69,14.98,49.52,34.87c-0.77,3-1.18,6.16-1.18,9.43c0,3.14,0.38,6.19,1.09,9.08
		C160.01,199.92,139.74,214.72,115.57,214.72z M164.35,171.13c0-2.92,0.33-5.76,0.95-8.47c0.57,2.63,0.87,5.35,0.87,8.12
		c0,2.9-0.32,5.73-0.94,8.48C164.66,176.65,164.35,173.93,164.35,171.13z M194.91,205.25c-14.03,0-25.89-10.62-29.46-25.04
		c0.76-3.04,1.16-6.2,1.16-9.44c0-3.11-0.37-6.15-1.08-9.08c3.67-14.24,15.45-24.69,29.37-24.69c13.59,0,25.13,9.96,29.09,23.68
		c-0.83,3.24-1.25,6.58-1.25,9.98c0,3.56,0.47,7.07,1.38,10.46C220.3,195.08,208.65,205.25,194.91,205.25z M224.35,180.29
		c-0.76-3.1-1.15-6.32-1.15-9.63c0-3.1,0.36-6.13,1.06-9.07c0.79,3.03,1.21,6.22,1.21,9.53
		C225.47,174.3,225.08,177.38,224.35,180.29z M303.53,213.15c-3.13,4.16-18.71,4.96-28.25,4.19c-25.74-2.07-45.46-16.65-50.7-36.17
		c0.87-3.18,1.34-6.55,1.34-10.04c0-3.62-0.5-7.12-1.44-10.4c5.14-19.66,25.27-34.77,50.8-36.74c0.81-0.06,1.66-0.13,2.53-0.2
		c8.56-0.69,20.29-1.64,23.62,1.44c0.79,0.73,1.07,1.63,0.87,2.76c-3.81,21.56-8.47,66.36,1.13,81.64
		C304.26,210.95,304.29,212.14,303.53,213.15z"/>
	<g>
		<path class="st0" d="M165.41,76.94c-4.4-7.84-0.37-17.92,6.19-23.23c6.62-5.35,15.95-7.41,23.73-3.45
			c-6.13,4.45-11.36,7.53-16.72,11.93C173.27,66.63,169.67,70.64,165.41,76.94L165.41,76.94z"/>
	</g>
	<g>
		<path class="st1" d="M182.1,64.17"/>
	</g>
</g>
</svg>
